<?xml version="1.0" standalone="no"?>
<!DOCTYPE svg PUBLIC "-//W3C//DTD SVG 20010904//EN"
 "http://www.w3.org/TR/2001/REC-SVG-20010904/DTD/svg10.dtd">
<svg version="1.0" xmlns="http://www.w3.org/2000/svg"
 width="200.000000pt" height="220.000000pt" viewBox="0 0 200.000000 220.000000"
 preserveAspectRatio="xMidYMid meet">

<g transform="translate(0.000000,220.000000) scale(0.100000,-0.100000)"
fill="#000000" stroke="none">
<path d="M1195 2164 c-170 -13 -437 -32 -593 -43 -187 -13 -288 -24 -298 -32
-9 -7 -29 -40 -46 -73 -26 -51 -29 -67 -24 -107 l6 -47 -57 -17 c-117 -32
-127 -38 -141 -80 -7 -22 -14 -71 -14 -110 -2 -65 4 -85 80 -283 45 -118 82
-222 82 -231 0 -10 -34 -130 -76 -267 -80 -266 -90 -327 -61 -397 10 -23 24
-38 39 -42 13 -2 106 -23 208 -44 101 -22 186 -44 188 -48 2 -4 25 -69 50
-143 40 -114 50 -135 69 -138 12 -2 106 20 208 49 l186 52 292 -68 c346 -81
362 -84 375 -58 5 10 26 77 47 150 l37 131 79 7 c100 9 108 17 84 94 -22 73
-18 92 22 111 52 24 72 -83 -172 940 -140 589 -166 694 -177 708 -13 15 -15
15 -393 -14z m379 -21 c7 -23 159 -659 277 -1158 49 -209 92 -388 95 -397 6
-21 20 -19 -401 -59 -187 -17 -466 -44 -620 -59 -154 -16 -283 -25 -287 -22
-6 6 -278 1624 -274 1629 1 1 282 22 711 53 154 11 300 21 325 23 128 10 169
7 174 -10z m-1094 -886 c72 -433 130 -795 128 -804 -13 -67 -34 33 -142 684
-64 390 -126 755 -136 813 -14 79 -16 108 -7 118 9 12 13 11 19 -4 4 -11 66
-374 138 -807z m-240 571 c0 -2 22 -136 49 -298 27 -162 49 -296 48 -297 -2
-1 -51 124 -110 279 -60 154 -107 281 -105 283 8 8 118 38 118 33z m-115 -105
c44 -110 175 -451 210 -548 28 -78 57 -210 42 -195 -3 3 -58 142 -122 310
-187 487 -192 500 -164 500 4 0 19 -30 34 -67z m64 -895 c-33 -110 -58 -178
-66 -178 -7 0 -13 5 -13 12 0 6 26 97 57 201 47 156 58 185 66 166 6 -18 -4
-67 -44 -201z m171 -257 c48 -10 57 -16 67 -41 7 -19 8 -30 1 -30 -5 0 -72 14
-149 31 -77 16 -145 29 -152 26 -6 -2 59 -18 144 -36 187 -39 179 -37 179 -56
0 -11 -6 -15 -17 -11 -52 14 -307 66 -310 62 -6 -6 13 -11 184 -47 102 -22
154 -37 158 -47 3 -8 4 -16 2 -18 -2 -2 -73 11 -158 30 -85 19 -167 36 -184
38 -27 3 -31 8 -43 53 -10 36 -11 58 -3 76 l10 27 108 -23 c59 -13 133 -28
163 -34z m1510 -55 c-11 -10 -183 -31 -635 -76 -341 -34 -622 -63 -624 -66 -9
-9 61 -2 645 56 329 33 600 60 602 60 1 0 2 -7 2 -15 0 -19 -12 -21 -220 -40
-267 -25 -960 -94 -1003 -101 -21 -3 -37 -8 -34 -10 2 -2 273 23 602 56 329
33 612 60 628 60 18 0 27 -5 25 -12 -3 -8 -202 -32 -624 -74 -340 -35 -623
-64 -629 -64 -6 -1 -6 -3 1 -6 5 -2 280 23 610 56 329 33 611 60 627 60 16 0
27 -5 27 -14 0 -9 -21 -15 -72 -20 -40 -4 -167 -16 -283 -27 -194 -18 -315
-30 -763 -76 -114 -11 -166 -13 -173 -6 -15 15 -15 74 0 111 10 24 21 33 45
36 17 3 263 28 546 56 283 28 553 54 600 59 47 4 92 9 100 10 13 1 13 -1 0
-13z m-173 -218 c-2 -7 -17 -62 -33 -122 l-28 -110 -14 34 c-16 39 -10 94 12
119 8 9 18 30 22 46 9 40 13 45 31 45 8 0 13 -6 10 -12z m-229 -45 l132 -27 0
-29 c0 -22 -4 -27 -17 -23 -10 3 -96 22 -190 42 -95 21 -173 41 -173 45 0 5
21 10 48 12 26 2 52 4 57 5 6 1 70 -10 143 -25z m-101 -43 c125 -28 229 -53
231 -55 2 -2 2 -10 0 -17 -2 -11 -59 -1 -267 46 -252 58 -267 64 -198 75 4 0
109 -22 234 -49z m-65 -30 c287 -66 308 -72 308 -95 0 -19 13 -20 -137 16 -70
17 -206 48 -300 69 l-173 38 -175 -49 c-96 -27 -182 -49 -190 -49 -20 0 -20
63 -1 83 13 13 182 34 192 24 3 -2 -35 -14 -83 -27 -49 -13 -92 -27 -98 -32
-12 -12 5 -7 170 42 72 21 151 38 177 39 25 1 165 -26 310 -59z"/>
<path d="M1417 2093 c-3 -5 -12 -46 -22 -93 -9 -47 -19 -93 -21 -102 -4 -14 1
-18 21 -18 18 0 29 6 32 19 9 34 78 42 88 11 7 -21 39 -27 50 -10 3 5 -17 52
-45 105 -43 79 -56 95 -75 95 -13 0 -26 -3 -28 -7z m63 -115 c0 -5 -9 -8 -20
-8 -14 0 -20 7 -20 23 0 34 12 41 27 15 7 -13 12 -26 13 -30z"/>
<path d="M1191 2063 c-48 -40 -43 -123 10 -167 61 -51 159 -22 159 48 0 43
-12 52 -60 48 -31 -3 -40 -8 -40 -23 0 -14 7 -19 26 -19 35 0 26 -24 -10 -28
-36 -4 -66 23 -66 59 0 48 38 71 80 49 13 -7 21 -5 31 6 11 14 10 18 -6 30
-27 20 -98 18 -124 -3z"/>
<path d="M1075 2028 c3 -24 9 -52 12 -63 3 -13 -16 1 -54 38 -63 62 -110 78
-100 35 3 -13 11 -60 17 -105 12 -79 14 -83 38 -83 24 0 25 1 18 58 l-7 57 53
-52 c55 -54 98 -70 98 -35 0 9 -7 55 -15 102 -8 47 -15 86 -15 88 0 1 -12 2
-26 2 -25 0 -25 -2 -19 -42z"/>
<path d="M776 2038 c-7 -21 -36 -182 -36 -195 0 -7 11 -13 25 -13 18 0 25 5
25 19 0 36 84 45 95 11 7 -22 55 -29 55 -7 0 6 -22 53 -49 102 -43 81 -51 90
-80 93 -19 2 -33 -2 -35 -10z m59 -78 c19 -37 19 -40 -5 -40 -16 0 -20 7 -20
35 0 43 5 44 25 5z"/>
<path d="M620 2015 c-5 -14 -13 -37 -16 -51 -10 -39 -20 -37 -53 15 -26 41
-35 47 -56 43 -29 -5 -30 -12 -13 -129 10 -79 12 -83 36 -83 24 0 24 1 18 63
l-8 62 31 -42 c16 -22 34 -44 40 -47 5 -3 17 18 27 46 16 48 18 51 25 28 4
-14 7 -40 8 -58 1 -33 19 -49 45 -39 12 5 11 22 -5 109 -10 57 -19 104 -19
106 0 1 -11 2 -25 2 -18 0 -28 -7 -35 -25z"/>
<path d="M1410 1843 c0 -9 27 -155 35 -188 4 -19 10 -21 72 -17 74 4 87 10 77
35 -4 13 -19 17 -55 17 -54 0 -48 -10 -67 110 -7 39 -11 45 -35 48 -15 2 -27
0 -27 -5z"/>
<path d="M1232 1832 c-10 -7 -9 -28 4 -110 l17 -102 32 0 c18 0 53 3 79 6 40
6 47 10 44 28 -3 18 -9 20 -52 17 -33 -2 -52 2 -57 11 -15 23 -10 28 30 28 43
0 55 9 45 35 -5 12 -17 16 -48 13 -31 -2 -41 1 -44 13 -2 13 8 18 48 24 40 5
50 10 46 22 -3 8 -6 17 -6 19 0 8 -125 4 -138 -4z"/>
<path d="M1007 1813 c-3 -5 3 -53 12 -108 l17 -100 64 3 c71 2 110 21 110 53
0 28 -18 59 -34 59 -12 0 -12 6 -3 29 9 25 8 33 -8 50 -15 17 -30 21 -86 21
-37 0 -70 -3 -72 -7z m120 -50 c6 -18 -47 -29 -58 -12 -5 8 -9 18 -9 22 0 13
63 3 67 -10z m21 -75 c17 -17 -4 -38 -39 -38 -24 0 -29 4 -29 25 0 21 5 25 28
25 15 0 33 -5 40 -12z"/>
<path d="M834 1802 c-6 -4 -23 -55 -36 -114 l-26 -108 28 0 c21 0 29 6 34 25
6 22 12 25 51 25 34 0 47 -5 55 -20 11 -21 27 -25 49 -11 11 7 3 29 -40 110
-46 87 -57 101 -79 101 -14 0 -30 -4 -36 -8z m51 -83 c18 -35 19 -34 -14 -44
-21 -7 -23 -5 -18 16 4 13 7 32 7 42 0 25 7 21 25 -14z"/>
<path d="M578 1783 c-16 -2 -28 -10 -28 -16 0 -11 14 -105 25 -174 l6 -33 62
6 c82 8 107 24 107 69 0 24 -6 37 -20 45 -15 8 -18 16 -11 33 22 63 -27 87
-141 70z m92 -57 c0 -14 -21 -26 -46 -26 -8 0 -14 9 -14 20 0 16 7 20 30 20
19 0 30 -5 30 -14z m26 -78 c9 -15 -25 -40 -51 -36 -12 2 -21 12 -23 26 -3 19
1 22 32 22 19 0 38 -5 42 -12z"/>
<path d="M1353 1572 c-148 -12 -183 -18 -183 -30 0 -11 10 -13 53 -8 28 3 119
11 200 17 143 11 150 11 169 -8 14 -15 40 -106 97 -354 43 -184 74 -335 70
-337 -4 -2 -24 4 -44 12 -53 23 -71 20 -94 -13 -18 -25 -19 -33 -10 -55 7 -14
20 -26 29 -26 9 0 25 -10 36 -22 19 -21 19 -21 -1 -13 -11 4 -30 10 -42 12
-13 3 -32 21 -44 39 -11 19 -24 34 -29 34 -4 0 -20 33 -35 74 -16 44 -34 76
-44 79 -9 2 -26 31 -39 70 -14 40 -30 68 -41 72 -10 3 -24 27 -35 60 -11 34
-23 56 -36 60 -10 3 -22 19 -25 37 -4 17 -20 44 -35 60 -16 16 -32 43 -35 59
-4 16 -15 34 -25 39 -10 6 -22 20 -26 32 -3 12 -21 37 -39 55 -28 29 -39 34
-72 31 -31 -2 -40 -8 -52 -33 -8 -16 -20 -34 -28 -38 -7 -4 -13 -24 -13 -44 0
-20 -7 -44 -16 -54 -9 -10 -17 -36 -18 -58 -1 -22 -9 -48 -18 -58 -9 -10 -16
-39 -17 -67 -1 -28 -8 -57 -16 -66 -9 -10 -15 -36 -15 -67 0 -36 -5 -55 -18
-66 -14 -13 -19 -33 -20 -84 -2 -54 -6 -69 -22 -80 -13 -9 -20 -26 -20 -46 0
-61 -12 -103 -32 -116 -28 -17 -37 -4 -10 15 31 21 29 62 -4 74 -17 7 -32 6
-46 -1 -11 -6 -21 -9 -22 -7 -3 3 -79 465 -80 488 -1 12 25 17 130 26 139 12
154 16 154 40 0 17 -57 44 -93 44 -13 0 -32 9 -42 20 -10 11 -31 20 -46 20
-33 0 -98 -30 -99 -46 0 -15 46 -6 61 12 17 21 56 17 73 -7 10 -15 27 -22 61
-24 44 -3 64 -10 54 -20 -7 -7 -236 -28 -251 -23 -17 6 -38 136 -27 166 12 32
35 38 227 52 155 12 195 20 179 36 -3 3 -90 -2 -194 -11 -199 -17 -228 -25
-239 -70 -8 -32 131 -862 148 -882 27 -33 69 -42 153 -33 44 5 266 27 494 50
296 29 421 44 438 55 31 21 38 57 23 124 -9 42 -106 462 -175 758 -6 25 -37
48 -75 55 -14 3 -107 -2 -207 -10z m-239 -51 c9 -14 -27 -23 -36 -9 -6 10 -10
10 -17 -2 -11 -16 -27 -7 -16 9 8 13 62 15 69 2z m46 -50 c15 -29 12 -38 -5
-15 -13 17 -14 17 -15 2 0 -10 -3 -18 -6 -18 -4 0 -13 8 -20 18 -13 16 -14 16
-20 -5 -7 -26 -24 -31 -24 -8 0 8 -4 15 -10 15 -5 0 -10 -9 -10 -20 0 -11 -4
-20 -10 -20 -5 0 -10 7 -10 16 0 11 -5 14 -16 10 -10 -4 -14 -1 -12 6 6 16 65
36 110 37 27 1 40 -4 48 -18z m51 -72 c7 -13 7 -19 1 -15 -6 3 -12 -4 -14 -16
-4 -22 -5 -22 -16 5 -13 30 -37 28 -27 -3 3 -10 2 -21 -4 -24 -5 -3 -12 5 -15
19 -9 33 -34 32 -39 -2 -4 -27 -4 -27 -12 -5 -10 30 -28 23 -36 -14 -7 -28 -7
-28 -14 -6 -10 29 -25 28 -25 -2 0 -14 -4 -28 -10 -31 -6 -3 -10 5 -10 19 0
13 -6 26 -12 29 -17 5 60 45 109 56 70 17 111 13 124 -10z m42 -81 c16 -13 35
-68 23 -68 -4 0 -11 12 -16 26 -11 29 -31 24 -23 -6 8 -32 -11 -23 -24 10 -15
41 -33 38 -33 -5 0 -43 -18 -46 -26 -5 -5 21 -12 30 -25 30 -15 0 -19 -7 -19
-35 0 -43 -14 -45 -29 -4 -13 38 -31 29 -31 -17 0 -24 -5 -34 -15 -34 -9 0
-15 10 -15 26 0 35 -24 26 -28 -12 -4 -37 -25 -60 -22 -24 4 42 1 50 -15 44
-35 -14 -11 8 35 31 96 49 227 70 263 43z m74 -102 c10 -10 13 -97 3 -91 -5 3
-11 19 -15 35 -4 17 -13 30 -21 30 -12 0 -13 -8 -8 -36 9 -48 -14 -43 -30 6
-6 21 -19 36 -30 38 -17 4 -18 0 -12 -38 6 -36 4 -41 -11 -38 -11 2 -20 15
-23 33 -4 22 -11 30 -25 30 -17 0 -20 -7 -20 -40 0 -33 -4 -40 -25 -46 -43
-12 -49 -10 -52 24 -5 50 -32 42 -36 -10 -4 -52 -22 -58 -22 -7 0 49 -22 40
-34 -14 -10 -49 -25 -57 -18 -10 4 28 3 30 -17 25 -19 -5 -20 -3 -10 9 28 34
159 90 249 108 32 6 149 0 157 -8z m85 -156 c9 -19 19 -46 22 -60 3 -14 -3 -6
-14 18 -24 53 -34 54 -26 2 8 -53 -9 -51 -26 3 -9 25 -22 43 -33 45 -16 4 -17
-1 -11 -42 6 -37 4 -46 -7 -46 -9 0 -19 18 -26 46 -10 38 -15 45 -34 42 -23
-3 -24 -13 -13 -70 5 -23 2 -28 -14 -28 -15 0 -20 7 -20 28 0 37 -22 67 -44
59 -12 -5 -16 -19 -16 -57 0 -64 -25 -70 -35 -9 -8 46 -31 61 -52 33 -9 -13
-12 -31 -8 -56 6 -34 4 -38 -14 -38 -18 0 -21 6 -21 40 0 33 -3 40 -20 40 -25
0 -40 -29 -40 -74 0 -20 -4 -36 -9 -36 -6 0 -7 16 -4 35 7 41 -13 54 -55 36
-25 -10 -24 -9 7 18 35 30 139 74 234 97 29 7 99 12 157 11 l105 -2 17 -35z
m65 -112 c22 -35 70 -178 59 -178 -7 0 -20 24 -29 54 -18 57 -50 106 -62 94
-4 -4 2 -35 14 -69 25 -75 25 -79 6 -79 -9 0 -22 25 -35 70 -13 44 -28 74 -41
80 -33 18 -37 -12 -13 -105 6 -25 5 -26 -13 -16 -12 6 -24 26 -28 48 -10 55
-23 73 -50 73 -22 0 -25 -4 -25 -37 0 -21 4 -54 9 -74 7 -33 6 -36 -10 -32
-12 4 -21 18 -24 42 -10 56 -23 81 -44 81 -28 0 -36 -17 -36 -74 0 -38 -4 -51
-20 -59 -11 -6 -32 -19 -47 -29 -15 -10 -30 -18 -33 -18 -3 0 -5 19 -5 43 0
56 -11 71 -44 63 -31 -8 -46 -40 -46 -97 0 -21 -4 -39 -10 -39 -5 0 -10 20
-10 45 0 77 -52 72 -65 -6 -4 -21 -11 -41 -16 -45 -12 -7 -11 18 2 70 9 37 17
46 56 65 25 12 43 24 40 27 -3 3 -19 -2 -36 -10 -52 -27 -81 -36 -81 -26 0 29
223 111 364 134 107 18 262 20 273 4z m-241 -180 c18 -6 35 -19 37 -28 3 -11
19 -20 41 -24 21 -4 45 -10 54 -13 10 -3 7 3 -8 16 -14 11 -33 21 -42 21 -10
0 -18 6 -18 14 0 18 49 31 63 17 6 -6 27 -11 47 -11 20 0 45 -7 56 -15 18 -13
16 -14 -21 -15 -65 -1 -22 -15 52 -18 67 -2 68 -2 36 12 -31 14 -48 40 -20 31
117 -38 189 -57 217 -56 52 1 69 -13 39 -32 -17 -10 -165 -28 -517 -62 -459
-45 -494 -47 -510 -32 -15 16 -12 17 46 17 35 0 62 4 62 10 0 6 -12 10 -27 10
-26 1 -27 2 -10 14 12 10 28 12 45 7 17 -5 39 -3 57 5 17 7 39 13 49 14 11 0
31 14 46 32 17 20 31 29 39 24 9 -6 8 -11 -6 -22 -17 -12 -16 -13 7 -14 l25
-1 -25 -14 c-23 -13 -21 -14 30 -8 71 8 109 21 63 22 -18 1 -33 5 -33 11 0 15
50 24 63 11 14 -14 71 -15 62 -1 -3 5 -20 13 -37 18 -35 9 -50 31 -21 33 16 1
16 2 1 6 -21 5 -12 33 10 33 9 0 30 -5 48 -12z m508 -27 c13 -5 16 -10 8 -15
-11 -6 -52 9 -52 19 0 7 22 5 44 -4z m-807 -77 c-3 -3 -12 -4 -19 -1 -8 3 -5
6 6 6 11 1 17 -2 13 -5z"/>
<path d="M1030 1029 c0 -5 5 -7 10 -4 6 3 10 8 10 11 0 2 -4 4 -10 4 -5 0 -10
-5 -10 -11z"/>
<path d="M1045 880 l-20 -9 20 0 c11 0 27 4 35 9 13 9 13 10 0 9 -8 0 -24 -4
-35 -9z"/>
<path d="M1080 840 c-13 -9 -13 -10 0 -10 8 0 22 5 30 10 13 9 13 10 0 10 -8
0 -22 -5 -30 -10z"/>
<path d="M935 810 c-3 -5 -1 -10 4 -10 6 0 11 5 11 10 0 6 -2 10 -4 10 -3 0
-8 -4 -11 -10z"/>
<path d="M1068 793 c7 -3 16 -2 19 1 4 3 -2 6 -13 5 -11 0 -14 -3 -6 -6z"/>
<path d="M1571 691 c-22 -14 -3 -31 35 -31 38 0 45 14 15 30 -24 12 -32 12
-50 1z"/>
<path d="M1408 683 c7 -3 16 -2 19 1 4 3 -2 6 -13 5 -11 0 -14 -3 -6 -6z"/>
<path d="M1306 665 c-11 -8 -18 -15 -15 -16 27 -5 129 -2 129 4 0 4 -13 7 -30
7 -16 0 -30 5 -30 10 0 15 -32 12 -54 -5z"/>
<path d="M1470 670 c0 -5 5 -10 10 -10 6 0 10 5 10 10 0 6 -4 10 -10 10 -5 0
-10 -4 -10 -10z"/>
<path d="M1168 633 c7 -3 16 -2 19 1 4 3 -2 6 -13 5 -11 0 -14 -3 -6 -6z"/>
<path d="M1238 633 c7 -3 16 -2 19 1 4 3 -2 6 -13 5 -11 0 -14 -3 -6 -6z"/>
<path d="M960 615 c-24 -14 -24 -14 22 -15 48 0 71 13 42 24 -23 9 -36 7 -64
-9z"/>
<path d="M1417 1440 c-14 -11 -36 -20 -50 -20 -31 0 -61 -32 -53 -58 9 -28 19
-30 136 -20 141 11 150 14 150 41 0 30 -18 47 -51 47 -15 0 -32 7 -39 15 -17
21 -63 19 -93 -5z m83 -15 c7 -8 25 -15 41 -15 31 0 48 -18 29 -30 -17 -11
-216 -24 -230 -15 -23 14 12 37 47 32 18 -3 33 -2 33 3 0 15 31 40 49 40 10 0
24 -7 31 -15z"/>
</g>
</svg>
